<?xml version="1.0" standalone="no"?>
<svg xmlns="http://www.w3.org/2000/svg" width="48" height="48"><rect width="48" height="48" opacity="0"></rect><g mask="url(#hms_mask_0)"><path d="M24 2.02Q18 2.02 12.96 4.97Q7.92 7.92 4.97 12.96Q2.02 18 2.02 24Q2.02 30 4.97 35.04Q7.92 40.08 12.96 43.03Q18 45.98 24 45.98Q29.95 45.98 35.02 43.03Q40.08 40.08 43.03 35.02Q45.98 29.95 45.98 24Q45.98 18.05 43.03 12.98Q40.08 7.92 35.02 4.97Q29.95 2.02 24 2.02Z" fill="rgba(0,0,0,0.9019607843137255)"></path></g><defs><mask id="hms_mask_0"><rect width="48" height="48" fill="#ffffff"></rect><g><path d="M33.17 22.32Q33.79 22.7 34.03 23.38Q34.27 24.05 34.03 24.7Q33.79 25.34 33.17 25.73L20.88 32.78Q20.26 33.17 19.58 33.02Q18.91 32.88 18.46 32.35Q18 31.82 18 31.1L18 16.94Q18 16.22 18.46 15.7Q18.91 15.17 19.58 15.02Q20.26 14.88 20.88 15.26L33.17 22.32Z" fill="#000000"></path></g></mask></defs></svg>