<?xml version="1.0" standalone="no"?>
<svg xmlns="http://www.w3.org/2000/svg" width="48" height="48"><rect width="48" height="48" opacity="0"></rect><g><path d="M10.51 11.47Q8.88 11.47 7.51 12.29Q6.14 13.1 5.33 14.47Q4.51 15.84 4.51 17.47L4.51 37.44Q4.51 39.07 5.33 40.46Q6.14 41.86 7.51 42.65Q8.88 43.44 10.51 43.44L30.53 43.44Q32.16 43.44 33.53 42.65Q34.9 41.86 35.71 40.46Q36.53 39.07 36.53 37.44L36.53 17.47Q36.53 15.84 35.71 14.47Q34.9 13.1 33.53 12.29Q32.16 11.47 30.53 11.47L10.51 11.47ZM28.37 26.16Q28.99 26.16 29.45 26.59Q29.9 27.02 29.9 27.65Q29.9 28.27 29.45 28.7Q28.99 29.14 28.37 29.14L21.89 29.14L21.89 35.62Q21.89 36.24 21.46 36.7Q21.02 37.15 20.4 37.15Q19.78 37.15 19.32 36.7Q18.86 36.24 18.86 35.62L18.86 29.14L12.38 29.14Q11.76 29.14 11.33 28.7Q10.9 28.27 10.9 27.65Q10.9 27.02 11.33 26.59Q11.76 26.16 12.38 26.16L18.86 26.16L18.86 19.63Q18.86 19.01 19.32 18.58Q19.78 18.14 20.4 18.14Q21.02 18.14 21.46 18.58Q21.89 19.01 21.89 19.63L21.89 26.16L28.37 26.16Z" fill="rgba(0,0,0,0.9019607843137255)"></path><path d="M19.44 4.56Q16.8 4.56 14.52 5.71Q12.24 6.86 10.75 8.88L31.73 8.88Q33.74 8.88 35.45 9.86Q37.15 10.85 38.14 12.55Q39.12 14.26 39.12 16.27L39.12 37.25Q41.14 35.71 42.29 33.43Q43.44 31.15 43.44 28.56L43.44 15.55Q43.44 12.58 41.98 10.03Q40.51 7.49 37.97 6.02Q35.42 4.56 32.45 4.56L19.44 4.56Z" fill="rgba(0,0,0,0.9019607843137255)"></path></g></svg>